<svg id="Layer_1" data-name="Layer 1" xmlns="http://www.w3.org/2000/svg" viewBox="0 0 395.74 395.74"><defs><style>.cls-1{fill:#1b9bc6;}.cls-2{fill:#1e8bbd;}.cls-3{fill:#1c9bc6;}.cls-4{fill:#1c7c9e;}.cls-5{fill:#02aed8;}.cls-6{fill:#0ebce5;}.cls-7{fill:#00aed8;}.cls-8{fill:#0dbce5;}.cls-9{fill:#0cbce5;}.cls-10{fill:#1d7c9e;}</style></defs><title>Spark</title><polygon class="cls-1" points="240.84 154.9 154.9 154.9 197.87 111.93 240.84 68.95 240.84 154.9"/><polygon class="cls-2" points="154.9 68.95 240.84 68.95 197.87 111.93 154.9 154.9 154.9 68.95"/><polygon class="cls-3" points="154.9 154.9 68.95 154.9 111.93 111.93 154.9 68.95 154.9 154.9"/><path class="cls-4" d="M330.1,123H244.16l43-43,22.43-22.43a12,12,0,0,1,20.54,8.51V123Z" transform="translate(-89.26 -54)"/><rect class="cls-5" x="154.9" y="154.9" width="85.94" height="85.94"/><polygon class="cls-6" points="154.9 240.84 68.95 240.84 111.93 197.87 154.9 154.9 154.9 240.84"/><polygon class="cls-7" points="68.95 154.9 154.9 154.9 111.93 197.87 68.95 240.84 68.95 154.9"/><path class="cls-6" d="M158.21,294.84h-56.9a12,12,0,0,1-8.51-20.54l22.43-22.43,43-43v85.94Z" transform="translate(-89.26 -54)"/><polygon class="cls-8" points="240.84 154.9 326.79 154.9 283.82 197.87 240.84 240.84 240.84 154.9"/><polygon class="cls-7" points="326.79 240.84 240.84 240.84 283.82 197.87 326.79 154.9 326.79 240.84"/><path class="cls-9" d="M416,208.9h56.9a12,12,0,0,1,8.51,20.54L459,251.87l-43,43V208.9Z" transform="translate(-89.26 -54)"/><polygon class="cls-1" points="240.84 240.84 326.79 240.84 283.82 283.82 240.84 326.79 240.84 240.84"/><polygon class="cls-2" points="240.84 326.79 154.9 326.79 197.87 283.82 240.84 240.84 240.84 326.79"/><polygon class="cls-1" points="154.9 240.84 240.84 240.84 197.87 283.82 154.9 326.79 154.9 240.84"/><path class="cls-10" d="M244.16,380.79H330.1l-43,43L264.69,446.2a12,12,0,0,1-20.54-8.51v-56.9Z" transform="translate(-89.26 -54)"/></svg>