<svg id="Layer_1" data-name="Layer 1" xmlns="http://www.w3.org/2000/svg" viewBox="0 0 377.01 228.03"><defs><style>.cls-1{fill:#1b9bc6;}.cls-2{fill:#1e8bbd;}.cls-3{fill:#1c9bc6;}.cls-4{fill:#1c7c9e;}.cls-5{fill:#02aed8;}.cls-6{fill:#0ebce5;}.cls-7{fill:#00aed8;}.cls-8{fill:#0dbce5;}.cls-9{fill:#0cbce5;}.cls-10{fill:#1d7c9e;}.cls-11{font-size:72px;fill:#262626;font-family:Nexa Light;}</style></defs><title>Spark-with-text</title><polygon class="cls-1" points="203.59 54.37 173.42 54.37 188.5 39.28 203.59 24.2 203.59 54.37"/><polygon class="cls-2" points="173.42 24.2 203.59 24.2 188.5 39.28 173.42 54.37 173.42 24.2"/><polygon class="cls-3" points="173.42 54.37 143.26 54.37 158.34 39.28 173.42 24.2 173.42 54.37"/><path class="cls-4" d="M312.72,86.68H282.56L297.64,71.6l7.87-7.87a4.22,4.22,0,0,1,7.21,3v20Z" transform="translate(-109.14 -62.48)"/><rect class="cls-5" x="173.42" y="54.37" width="30.17" height="30.17"/><polygon class="cls-6" points="173.42 84.53 143.26 84.53 158.34 69.45 173.42 54.37 173.42 84.53"/><polygon class="cls-7" points="143.26 54.37 173.42 54.37 158.34 69.45 143.26 84.53 143.26 54.37"/><path class="cls-6" d="M252.39,147h-20a4.22,4.22,0,0,1-3-7.21l7.87-7.87,15.08-15.08V147Z" transform="translate(-109.14 -62.48)"/><polygon class="cls-8" points="203.59 54.37 233.75 54.37 218.67 69.45 203.59 84.53 203.59 54.37"/><polygon class="cls-7" points="233.75 84.53 203.59 84.53 218.67 69.45 233.75 54.37 233.75 84.53"/><path class="cls-9" d="M342.89,116.85h20a4.22,4.22,0,0,1,3,7.21L358,131.93,342.89,147V116.85Z" transform="translate(-109.14 -62.48)"/><polygon class="cls-1" points="203.59 84.53 233.75 84.53 218.67 99.61 203.59 114.7 203.59 84.53"/><polygon class="cls-2" points="203.59 114.7 173.42 114.7 188.5 99.61 203.59 84.53 203.59 114.7"/><polygon class="cls-1" points="173.42 84.53 203.59 84.53 188.5 99.61 173.42 114.7 173.42 84.53"/><path class="cls-10" d="M282.56,177.18h30.17l-15.08,15.08-7.87,7.87a4.22,4.22,0,0,1-7.21-3v-20Z" transform="translate(-109.14 -62.48)"/><text class="cls-11" transform="translate(94.56 204.85) scale(1.05 1)">s</text><text class="cls-11" transform="translate(132.4 204.85)">pa</text><text class="cls-11" transform="translate(219.52 204.85) scale(1.05 1)">rk</text></svg>