<svg xmlns="http://www.w3.org/2000/svg" viewBox="0 0 187.71 228.03"><defs><style>.cls-1{fill:#1b9bc6;}.cls-2{fill:#1e8bbd;}.cls-3{fill:#1c9bc6;}.cls-4{fill:#1c7c9e;}.cls-5{fill:#02aed8;}.cls-6{fill:#0ebce5;}.cls-7{fill:#00aed8;}.cls-8{fill:#0dbce5;}.cls-9{fill:#0cbce5;}.cls-10{fill:#1d7c9e;}.cls-11{isolation:isolate;font-size:72px;fill:#fff;font-family:NexaLight, Nexa Light;}</style></defs><title>Spark-blue-white-text</title><g id="Layer_2" data-name="Layer 2"><g id="Layer_1-2" data-name="Layer 1"><polygon class="cls-1" points="109.03 54.36 78.86 54.36 93.94 39.27 109.03 24.19 109.03 54.36"/><polygon class="cls-2" points="78.86 24.19 109.03 24.19 93.94 39.27 78.86 54.36 78.86 24.19"/><polygon class="cls-3" points="78.86 54.36 48.7 54.36 63.78 39.27 78.86 24.19 78.86 54.36"/><path class="cls-4" d="M109,24.19H78.86L93.94,9.11l7.87-7.87a4.22,4.22,0,0,1,7.21,3v20Z"/><rect class="cls-5" x="78.86" y="54.36" width="30.17" height="30.17"/><polygon class="cls-6" points="78.86 84.52 48.7 84.52 63.78 69.44 78.86 54.36 78.86 84.52"/><polygon class="cls-7" points="48.7 54.36 78.86 54.36 63.78 69.44 48.7 84.52 48.7 54.36"/><path class="cls-6" d="M48.69,84.51h-20a4.22,4.22,0,0,1-3-7.21l7.87-7.87L48.64,54.35V84.51Z"/><polygon class="cls-8" points="109.03 54.36 139.19 54.36 124.11 69.44 109.03 84.52 109.03 54.36"/><polygon class="cls-7" points="139.19 84.52 109.03 84.52 124.11 69.44 139.19 54.36 139.19 84.52"/><path class="cls-9" d="M139.19,54.36h20a4.22,4.22,0,0,1,3,7.21l-7.89,7.87L139.19,84.51Z"/><polygon class="cls-1" points="109.03 84.52 139.19 84.52 124.11 99.6 109.03 114.69 109.03 84.52"/><polygon class="cls-2" points="109.03 114.69 78.86 114.69 93.94 99.6 109.03 84.52 109.03 114.69"/><polygon class="cls-1" points="78.86 84.52 109.03 84.52 93.94 99.6 78.86 114.69 78.86 84.52"/><path class="cls-10" d="M78.86,114.69H109L93.95,129.77l-7.87,7.87a4.22,4.22,0,0,1-7.21-3V114.69Z"/><text class="cls-11" transform="translate(0 204.84) scale(1.05 1)">s</text><text class="cls-11" transform="translate(37.84 204.84)">pa</text><text class="cls-11" transform="translate(124.96 204.84) scale(1.05 1)">rk</text></g></g></svg>