<svg id="Layer_1" data-name="Layer 1" xmlns="http://www.w3.org/2000/svg" viewBox="0 0 138.9 138.9"><defs><style>.cls-1,.cls-2,.cls-3,.cls-4,.cls-5{fill:#fff;}.cls-1{opacity:0.73;}.cls-2{opacity:0.8;}.cls-3{opacity:0.9;}.cls-4{opacity:0.55;}.cls-5{opacity:0.65;}</style></defs><title>Spark-white</title><polygon class="cls-1" points="84.53 54.37 54.37 54.37 69.45 39.28 84.53 24.2 84.53 54.37"/><polygon class="cls-2" points="54.37 24.2 84.53 24.2 69.45 39.28 54.37 54.37 54.37 24.2"/><polygon class="cls-1" points="54.37 54.37 24.2 54.37 39.28 39.28 54.37 24.2 54.37 54.37"/><path class="cls-3" d="M458.22,125.18H428.06l15.08-15.08,7.87-7.87a4.22,4.22,0,0,1,7.21,3v20Z" transform="translate(-373.69 -100.98)"/><rect class="cls-4" x="54.37" y="54.37" width="30.17" height="30.17"/><polygon class="cls-5" points="54.37 84.53 24.2 84.53 39.28 69.45 54.37 54.37 54.37 84.53"/><polygon class="cls-4" points="24.2 54.37 54.37 54.37 39.28 69.45 24.2 84.53 24.2 54.37"/><path class="cls-5" d="M397.89,185.51h-20a4.22,4.22,0,0,1-3-7.21l7.87-7.87,15.08-15.08v30.17Z" transform="translate(-373.69 -100.98)"/><polygon class="cls-5" points="84.53 54.37 114.7 54.37 99.61 69.45 84.53 84.53 84.53 54.37"/><polygon class="cls-4" points="114.7 84.53 84.53 84.53 99.61 69.45 114.7 54.37 114.7 84.53"/><path class="cls-5" d="M488.39,155.35h20a4.22,4.22,0,0,1,3,7.21l-7.87,7.87-15.08,15.08V155.35Z" transform="translate(-373.69 -100.98)"/><polygon class="cls-1" points="84.53 84.53 114.7 84.53 99.61 99.61 84.53 114.7 84.53 84.53"/><polygon class="cls-2" points="84.53 114.7 54.37 114.7 69.45 99.61 84.53 84.53 84.53 114.7"/><polygon class="cls-1" points="54.37 84.53 84.53 84.53 69.45 99.61 54.37 114.7 54.37 84.53"/><path class="cls-3" d="M428.06,215.68h30.17l-15.08,15.08-7.87,7.87a4.22,4.22,0,0,1-7.21-3v-20Z" transform="translate(-373.69 -100.98)"/></svg>