<svg id="Layer_1" data-name="Layer 1" xmlns="http://www.w3.org/2000/svg" viewBox="0 0 196.32 226.69"><defs><style>.cls-1,.cls-2,.cls-3,.cls-4,.cls-5,.cls-6{fill:#fff;}.cls-1{opacity:0.73;}.cls-2{opacity:0.8;}.cls-3{opacity:0.9;}.cls-4{opacity:0.55;}.cls-5{opacity:0.65;}.cls-6{font-size:72px;font-family:Nexa Light;}</style></defs><title>Spark-white-with-text</title><polygon class="cls-1" points="113.24 54.37 83.08 54.37 98.16 39.28 113.24 24.2 113.24 54.37"/><polygon class="cls-2" points="83.08 24.2 113.24 24.2 98.16 39.28 83.08 54.37 83.08 24.2"/><polygon class="cls-1" points="83.08 54.37 52.91 54.37 67.99 39.28 83.08 24.2 83.08 54.37"/><path class="cls-3" d="M186,385.26H155.84l15.08-15.08,7.87-7.87a4.22,4.22,0,0,1,7.21,3v20Z" transform="translate(-72.77 -361.06)"/><rect class="cls-4" x="83.08" y="54.37" width="30.17" height="30.17"/><polygon class="cls-5" points="83.08 84.53 52.91 84.53 67.99 69.45 83.08 54.37 83.08 84.53"/><polygon class="cls-4" points="52.91 54.37 83.08 54.37 67.99 69.45 52.91 84.53 52.91 54.37"/><path class="cls-5" d="M125.68,445.59h-20a4.22,4.22,0,0,1-3-7.21l7.87-7.87,15.08-15.08v30.17Z" transform="translate(-72.77 -361.06)"/><polygon class="cls-5" points="113.24 54.37 143.41 54.37 128.32 69.45 113.24 84.53 113.24 54.37"/><polygon class="cls-4" points="143.41 84.53 113.24 84.53 128.32 69.45 143.41 54.37 143.41 84.53"/><path class="cls-5" d="M216.17,415.43h20a4.22,4.22,0,0,1,3,7.21l-7.87,7.87-15.08,15.08V415.43Z" transform="translate(-72.77 -361.06)"/><polygon class="cls-1" points="113.24 84.53 143.41 84.53 128.32 99.61 113.24 114.7 113.24 84.53"/><polygon class="cls-2" points="113.24 114.7 83.08 114.7 98.16 99.61 113.24 84.53 113.24 114.7"/><polygon class="cls-1" points="83.08 84.53 113.24 84.53 98.16 99.61 83.08 114.7 83.08 84.53"/><path class="cls-3" d="M155.84,475.76H186l-15.08,15.08-7.87,7.87a4.22,4.22,0,0,1-7.21-3v-20Z" transform="translate(-72.77 -361.06)"/><text class="cls-6" transform="translate(0 203.51) scale(1.05 1)">s</text><text class="cls-6" transform="translate(37.83 203.51)">pa</text><text class="cls-6" transform="translate(124.95 203.51) scale(1.05 1)">rk</text></svg>